# xmcd
#
# Track frame offsets:
#	225
#	19898
#	32634
#	48339
#	59482
#	77781
#	92544
#	109318
#	126221
#	144939
#	162675
#	181915
#	196630
#	214531
#	229685
#	245378
#	262701
#	276276
#	291317
#	311375
#
# Disc length: 4351 seconds
#
# Revision: 2
# Processed by: cddbd v1.5.2PL0 Copyright (c) Steve Scherf et al.
# Submitted via: audiograbber 1.83.01
#
DISCID=1510fc14
DTITLE=Bernd Clüber and Peter Orloff - Bernd Clüver and Peter Orloff
DYEAR=1900
DGENRE=Schlager
TTITLE0=Bernd Clüver - Das Tor zum Garten der Träume
TTITLE1=Peter Orloff - Königen der Nacht
TTITLE2=Bernd Clüver - Mexxican Girl
TTITLE3=Peter Orloff - Ein Mädchen für immer
TTITLE4=Bernd Clüver - Wenn ich dich Berühr
TTITLE5=Peter Orloff - Der Junge mit der Mundharmonika
TTITLE6=Bernd Clüver - Ich kann den anderen in deinen Augen sehn
TTITLE7=Peter Orloff - Ich bestell schon mal das Himmelbett
TTITLE8=Bernd Clüver - Kleine Sonja
TTITLE9=Peter Orloff - Zwei im siebten Himmel
TTITLE10=Bernd Clüver - Eine zweite Chance
TTITLE11=Peter Orloff - Du
TTITLE12=Bernd Clüver - Jeder tut, was er kann
TTITLE13=Peter Orloff - Immer wenn ich Josy seh
TTITLE14=Bernd Clüver - Bleib heut Nacht bei mir
TTITLE15=Peter Orloff - Der kleine Printz
TTITLE16=Bernd Clüver - Eine Frau für den Abend
TTITLE17=Peter Orloff - Cora komm nach Haus
TTITLE18=Bernd Clüver - Hinter deinem Fenster
TTITLE19=Peter Orloff - Wie ein Stern
EXTD=
EXTT0=
EXTT1=
EXTT2=
EXTT3=
EXTT4=
EXTT5=
EXTT6=
EXTT7=
EXTT8=
EXTT9=
EXTT10=
EXTT11=
EXTT12=
EXTT13=
EXTT14=
EXTT15=
EXTT16=
EXTT17=
EXTT18=
EXTT19=
PLAYORDER=
